<?xml version="1.0" encoding="UTF-8"?>
<svg version="1.1" xmlns="http://www.w3.org/2000/svg" width="512" height="512">
<path d="M0 0 C168.96 0 337.92 0 512 0 C512 168.96 512 337.92 512 512 C343.04 512 174.08 512 0 512 C0 343.04 0 174.08 0 0 Z " fill="#FEFEFE" transform="translate(0,0)"/>
<path d="M0 0 C3.31245581 1.03514244 5.75042079 2.49845129 8.4375 4.625 C38.99652538 28.14514874 79.62851739 35.80353808 117.30175781 31.1796875 C145.78634686 27.11509339 175.38840072 17.86517826 199.609375 2.0703125 C200.72828125 1.38710937 201.8471875 0.70390625 203 0 C203.99 0.495 203.99 0.495 205 1 C198.30230178 10.53366053 191.55683753 20.029512 184.72460938 29.46728516 C180.19049026 35.73095571 175.68929856 42.01743125 171.20166016 48.31445312 C168.7180519 51.79816532 166.22989192 55.27862894 163.74267578 58.75976562 C161.69552618 61.62529694 159.64930472 64.49147909 157.60546875 67.359375 C152.96956024 73.8615049 148.30769818 80.34397436 143.625 86.8125 C138.87680804 93.37333458 134.18410631 99.97049666 129.52661133 106.59594727 C125.29400539 112.60740388 120.98891059 118.56471817 116.66870117 124.51342773 C112.57226754 130.167739 108.60496831 135.89873912 104.70703125 141.69140625 C103 144 103 144 101 145 C100.35675781 144.05382812 99.71351563 143.10765625 99.05078125 142.1328125 C94.00812939 134.74304574 88.89055618 127.42036302 83.625 120.1875 C79.14321411 114.02778774 74.77783949 107.80299719 70.5 101.5 C66.23766833 95.2222814 61.89521998 89.01560754 57.4375 82.875 C56.64339722 81.77949829 56.64339722 81.77949829 55.83325195 80.66186523 C53.6447141 77.64389526 51.4553385 74.6265386 49.26367188 71.61083984 C47.56439364 69.2665004 45.87492952 66.91537693 44.1875 64.5625 C43.66534912 63.84626465 43.14319824 63.1300293 42.60522461 62.39208984 C42.13093018 61.72773926 41.65663574 61.06338867 41.16796875 60.37890625 C40.74797607 59.7969751 40.3279834 59.21504395 39.89526367 58.61547852 C39 57 39 57 39 54 C39.96679688 54.71285156 40.93359375 55.42570312 41.9296875 56.16015625 C50.29524981 62.32930363 50.29524981 62.32930363 58.75 68.375 C59.52085937 68.9215625 60.29171875 69.468125 61.0859375 70.03125 C63.49880196 71.66138899 65.93370882 73.1958896 68.4140625 74.71875 C79.63710719 81.77403528 87.0372497 88.95602674 93.93359375 100.29345703 C95.059914 102.15537185 95.059914 102.15537185 96.8125 104.37109375 C98 106 98 106 98 108 C101.39811163 104.82739235 104.04568567 101.3000482 106.6875 97.5 C109.83378256 93.03326289 113.01438385 88.60692097 116.3125 84.25 C124.06906122 73.97704993 131.52505182 63.47876995 139 53 C137.58944336 53.42877441 137.58944336 53.42877441 136.15039062 53.86621094 C125.44681101 56.93357011 115.58038725 57.49515154 104.5 57.25 C102.88674144 57.22986269 101.27345802 57.21162495 99.66015625 57.1953125 C95.77280351 57.15198376 91.88669139 57.08337787 88 57 C93.27202809 61.99280453 98.51031571 65.70390514 105 68.9375 C105.77472656 69.33517578 106.54945313 69.73285156 107.34765625 70.14257812 C109.22658603 71.10523968 111.11255907 72.05413472 113 73 C113 73.33 113 73.66 113 74 C82.78714228 73.44976584 50.86088462 59.98995093 29.375 38.625 C28.24325824 37.42297877 27.11712775 36.21561508 26 35 C25.195625 34.21625 24.39125 33.4325 23.5625 32.625 C22.716875 31.75875 21.87125 30.8925 21 30 C20.35546875 29.34 19.7109375 28.68 19.046875 28 C14.3746849 23.03375598 10.34421571 17.84453227 6.5625 12.1875 C6.13751221 11.55344238 5.71252441 10.91938477 5.2746582 10.26611328 C3.10740102 6.95107249 1.30505995 3.74402445 0 0 Z " fill="#AEE233" transform="translate(211,183)"/>
<path d="M0 0 C-2.72502785 1.81668523 -5.17191016 2.83393639 -8.2409668 3.90136719 C-24.78875277 9.6818784 -40.06276739 19.03957602 -52 32 C-50.95972656 31.84144531 -49.91945313 31.68289063 -48.84765625 31.51953125 C-32.85324317 29.5408772 -16.2656465 29.64027458 -1 35 C-0.34 35 0.32 35 1 35 C-2.96 29.39 -6.92 23.78 -11 18 C-7.73456489 14.73456489 -4.88361853 13.63939485 -0.625 12.25 C0.035 12.01667969 0.695 11.78335938 1.375 11.54296875 C5.35183325 10.21999833 8.00233632 9.7357612 12 11 C13.60229492 12.54370117 13.60229492 12.54370117 14.98046875 14.54296875 C15.49931641 15.27966797 16.01816406 16.01636719 16.55273438 16.77539062 C17.09220703 17.57138672 17.63167969 18.36738281 18.1875 19.1875 C18.75919922 20.00541016 19.33089844 20.82332031 19.91992188 21.66601562 C21.08156202 23.32865364 22.2376979 24.99515144 23.38818359 26.66552734 C25.5550947 29.80397085 27.77503273 32.90261378 30 36 C30.80621402 37.13004825 31.61219902 38.26025991 32.41796875 39.390625 C37.01489619 45.8259647 41.65734326 52.22866309 46.29150391 58.63720703 C49.19540213 62.65320117 52.09779654 66.67028104 55 70.6875 C55.52762939 71.41743164 56.05525879 72.14736328 56.59887695 72.89941406 C59.74669941 77.25631054 62.8796041 81.62341531 66 86 C65.67 86.66 65.34 87.32 65 88 C64.04222656 87.443125 63.08445312 86.88625 62.09765625 86.3125 C16.70155791 60.16397776 -35.02087084 47.67165 -86.6796875 61.1796875 C-102.76477864 65.80884771 -119.12963468 74.09897394 -132.109375 84.671875 C-134 86 -134 86 -137 86 C-123.81264456 69.60153909 -109.70525382 53.89444269 -93 41 C-92.00871094 40.20335937 -91.01742187 39.40671875 -89.99609375 38.5859375 C-65.66588882 19.17313816 -32.07356477 -0.6414713 0 0 Z " fill="#078285" transform="translate(234,241)"/>
<path d="M0 0 C4.15236195 3.8886003 7.34271716 8.07243513 10.5625 12.75 C11.61705092 14.26311603 12.67174267 15.77613392 13.7265625 17.2890625 C14.26442383 18.06411133 14.80228516 18.83916016 15.35644531 19.63769531 C18.03026913 23.48082057 20.73480568 27.30215184 23.4375 31.125 C23.920979 31.81045898 24.40445801 32.49591797 24.90258789 33.20214844 C27.91968189 37.47920268 30.95406703 41.74343305 34 46 C30.60806844 47.85425592 27.63775088 48.5151633 23.7578125 48.796875 C20.88684482 48.97244509 20.88684482 48.97244509 17.6171875 49.515625 C13.7026297 49.90454435 10.81539827 50.00866851 7 49 C2.92047414 45.53385716 0.433633 40.68699689 -2 36 C-5.52816195 40.2589955 -8.64059285 44.74632336 -11.75 49.3125 C-12.25660156 50.05306641 -12.76320312 50.79363281 -13.28515625 51.55664062 C-14.52519457 53.36990421 -15.76342265 55.18437521 -17 57 C-15.35 57 -13.7 57 -12 57 C-13.6001149 60.2002298 -16.94211574 61.02979105 -20.0625 62.5 C-34.8752758 69.72006367 -47.99485111 78.93484487 -61 89 C-61.66 88.67 -62.32 88.34 -63 88 C-62.22398437 86.93265625 -61.44796875 85.8653125 -60.6484375 84.765625 C-54.09041146 75.72573948 -47.61997809 66.63166682 -41.23608398 57.46801758 C-37.36044264 51.91506004 -33.42165188 46.41300058 -29.4375 40.9375 C-24.92913717 34.74021609 -20.55321694 28.46635124 -16.25 22.125 C-3.84412555 3.84412555 -3.84412555 3.84412555 0 0 Z " fill="#088285" transform="translate(197,185)"/>
<path d="M0 0 C5.36820841 3.49359595 10.61556803 7.13355145 15.8125 10.875 C22.10927801 15.40606939 28.51190188 19.74589903 35 24 C32 25 32 25 29.95703125 24.22265625 C28.89548828 23.64837891 28.89548828 23.64837891 27.8125 23.0625 C27.09707031 22.68222656 26.38164062 22.30195313 25.64453125 21.91015625 C25.10183594 21.60980469 24.55914062 21.30945313 24 21 C22.24471981 23.1447024 22.24471981 23.1447024 21 26 C21.69940936 29.26814404 21.69940936 29.26814404 23 32 C24.32 32 25.64 32 27 32 C27.48198463 33.24891614 27.96045677 34.49918808 28.4375 35.75 C28.70433594 36.44609375 28.97117187 37.1421875 29.24609375 37.859375 C29.96146693 39.89059003 30.51365652 41.9035291 31 44 C26.84501088 40.28553985 24.00884059 35.78722203 20.9375 31.1875 C14.626698 21.84338364 8.18681109 12.56771534 1.1953125 3.71484375 C0 2 0 2 0 0 Z " fill="#AFE236" transform="translate(249,237)"/>
<path d="M0 0 C-3.06603847 1.72712244 -6.22139339 2.70056482 -9.58374023 3.69873047 C-25.43319248 8.50790811 -41.22502059 16.1766724 -54.109375 26.671875 C-56 28 -56 28 -59 28 C-43.10506135 8.23466258 -43.10506135 8.23466258 -35 2 C-34.67 3.65 -34.34 5.3 -34 7 C-33.34 7 -32.68 7 -32 7 C-32 7.66 -32 8.32 -32 9 C-28.535 8.505 -28.535 8.505 -25 8 C-25 7.34 -25 6.68 -25 6 C-23.80761719 5.65066406 -22.61523438 5.30132812 -21.38671875 4.94140625 C-19.82030407 4.48179955 -18.25389829 4.02216255 -16.6875 3.5625 C-15.50897461 3.21735352 -15.50897461 3.21735352 -14.30664062 2.86523438 C-13.1706543 2.53168945 -13.1706543 2.53168945 -12.01171875 2.19140625 C-10.96697388 1.88505249 -10.96697388 1.88505249 -9.90112305 1.57250977 C-6.37659059 0.51112173 -3.69781632 -0.09994098 0 0 Z " fill="#118285" transform="translate(156,299)"/>
<path d="M0 0 C-2.72502785 1.81668523 -5.17191016 2.83393639 -8.2409668 3.90136719 C-22.52606611 8.89147141 -34.30928385 16.5231404 -46 26 C-46 23 -46 23 -45 21 C-44.01 21 -43.02 21 -42 21 C-42.33 20.01 -42.66 19.02 -43 18 C-41.02 17.34 -39.04 16.68 -37 16 C-37.33 14.68 -37.66 13.36 -38 12 C-37.34 12 -36.68 12 -36 12 C-36 11.34 -36 10.68 -36 10 C-37.32 9.67 -38.64 9.34 -40 9 C-13.68830462 -0.31307431 -13.68830462 -0.31307431 0 0 Z " fill="#218385" transform="translate(234,241)"/>
<path d="M0 0 C0.66 0.33 1.32 0.66 2 1 C-6.24278195 12.73296891 -14.58037299 24.39329413 -23 36 C-23.495 34.515 -23.495 34.515 -24 33 C-22.71937515 31.2925002 -21.38232443 29.62626404 -20 28 C-19.67 27.01 -19.34 26.02 -19 25 C-18.34 25 -17.68 25 -17 25 C-17 23.68 -17 22.36 -17 21 C-15.68 20.67 -14.36 20.34 -13 20 C-13 19.01 -13 18.02 -13 17 C-12.34 17 -11.68 17 -11 17 C-11 15.68 -11 14.36 -11 13 C-10.34 13 -9.68 13 -9 13 C-8.34 11.35 -7.68 9.7 -7 8 C-8.99863756 8.57944932 -8.99863756 8.57944932 -11 10 C-12.29231642 13.04199472 -12.29231642 13.04199472 -13 16 C-15.97 15.01 -18.94 14.02 -22 13 C-18.42437416 10.08280142 -14.5113699 8.0549695 -10.4375 5.9375 C-5.11221507 3.1549956 -5.11221507 3.1549956 0 0 Z " fill="#B5D85A" transform="translate(414,183)"/>
<path d="M0 0 C4.27376358 1.33555112 7.25424278 3.63463539 10.73046875 6.33984375 C14.03364291 8.75610712 17.54698114 10.76566237 21.09375 12.80078125 C21.7228125 13.19652344 22.351875 13.59226563 23 14 C23 14.33 23 14.66 23 15 C20.03 15.99 17.06 16.98 14 18 C14.66 19.65 15.32 21.3 16 23 C9.05805017 16.70885797 3.14885503 8.85615479 0 0 Z " fill="#B1DD46" transform="translate(211,183)"/>
<path d="M0 0 C4.00936388 3.77819335 7.17270443 7.79584593 10.3125 12.3125 C10.9940918 13.28026367 10.9940918 13.28026367 11.68945312 14.26757812 C12.79735952 15.84197142 13.89930525 17.42055646 15 19 C14.67 19.66 14.34 20.32 14 21 C12.37191406 20.07767578 12.37191406 20.07767578 10.7109375 19.13671875 C9.26566845 18.32023558 7.82035351 17.50383364 6.375 16.6875 C5.66214844 16.28337891 4.94929688 15.87925781 4.21484375 15.46289062 C0.19392107 13.19420489 -3.84794508 11.0236356 -8 9 C-8 8.67 -8 8.34 -8 8 C-5.36 7.67 -2.72 7.34 0 7 C0 6.34 0 5.68 0 5 C0.33 4.67 0.66 4.34 1 4 C0.59070014 1.94603274 0.59070014 1.94603274 0 0 Z " fill="#1A8485" transform="translate(285,308)"/>
<path d="M0 0 C2.31 0 4.62 0 7 0 C7.3125 2.1875 7.3125 2.1875 7 5 C4.8125 7.4375 4.8125 7.4375 2 10 C0.28078596 11.96083331 -1.35335021 13.97697312 -3 16 C-3 10.80358412 1.02804343 7.08644028 4 3 C3.07703125 3.28584961 2.1540625 3.57169922 1.203125 3.86621094 C-9.98143934 7.11210902 -20.41772498 7.48438739 -32 7.25 C-33.75779176 7.22987013 -35.51560622 7.21163102 -37.2734375 7.1953125 C-41.51620184 7.15190852 -45.75783831 7.08325498 -50 7 C-50 6.34 -50 5.68 -50 5 C-48.95134766 5.01047363 -47.90269531 5.02094727 -46.82226562 5.03173828 C-42.90107691 5.06816344 -38.97990292 5.09098178 -35.05859375 5.10986328 C-33.36716184 5.11986984 -31.67574701 5.13347931 -29.984375 5.15087891 C-27.54162358 5.17536403 -25.09910251 5.18653672 -22.65625 5.1953125 C-21.53700134 5.21079636 -21.53700134 5.21079636 -20.3951416 5.22659302 C-15.28673158 5.22766459 -10.90317782 4.46238706 -6 3 C-5.67 2.67 -5.34 2.34 -5 2 C-3.33382885 1.95936168 -1.66611905 1.957279 0 2 C0 1.34 0 0.68 0 0 Z " fill="#B6D864" transform="translate(346,233)"/>
<path d="M0 0 C0.66 0 1.32 0 2 0 C2 0.66 2 1.32 2 2 C3.98 2 5.96 2 8 2 C8 2.66 8 3.32 8 4 C5.96633799 5.54236738 3.93877684 6.97124441 1.8125 8.375 C-2.26698186 11.1037504 -6.20768078 13.87187229 -10 17 C-10.66 16.67 -11.32 16.34 -12 16 C-10.05201388 13.3256311 -8.08996102 10.66191516 -6.125 8 C-5.56941406 7.236875 -5.01382813 6.47375 -4.44140625 5.6875 C-3.90644531 4.965625 -3.37148437 4.24375 -2.8203125 3.5 C-2.32805176 2.8296875 -1.83579102 2.159375 -1.32861328 1.46875 C-0.8901709 0.9840625 -0.45172852 0.499375 0 0 Z " fill="#168183" transform="translate(146,257)"/>
<path d="M0 0 C0.95519531 0.10828125 0.95519531 0.10828125 1.9296875 0.21875 C19.49678523 1.89624474 37.43061264 1.48623216 55 0 C54.67 0.99 54.34 1.98 54 3 C46.63102956 3.0252908 39.26207026 3.04284179 31.89306641 3.05493164 C29.38459861 3.05997003 26.87613376 3.06680084 24.36767578 3.07543945 C20.7685473 3.08752661 17.16945753 3.09323315 13.5703125 3.09765625 C11.87964157 3.10539818 11.87964157 3.10539818 10.15481567 3.11329651 C9.11388763 3.11337204 8.07295959 3.11344757 7.00048828 3.11352539 C6.08115509 3.115746 5.1618219 3.11796661 4.21463013 3.12025452 C2 3 2 3 0 2 C0 1.34 0 0.68 0 0 Z " fill="#B4D65F" transform="translate(281,214)"/>
<path d="M0 0 C4.1937936 3.90509042 7.32583032 8.1181911 10.5 12.875 C11.42645769 14.24781826 12.35353684 15.62021734 13.28125 16.9921875 C13.95220703 17.98750488 13.95220703 17.98750488 14.63671875 19.00292969 C16.70855956 22.03796869 18.85163075 25.01874847 21 28 C13.26135818 32.23987948 3.56725393 31.11917355 -5 31 C-5 30.67 -5 30.34 -5 30 C-4.24074219 29.93941406 -3.48148438 29.87882812 -2.69921875 29.81640625 C-1.70535156 29.73261719 -0.71148437 29.64882812 0.3125 29.5625 C1.29863281 29.48128906 2.28476563 29.40007812 3.30078125 29.31640625 C6.09375599 29.08187441 6.09375599 29.08187441 9 28 C10.39439664 27.93334624 11.79169875 27.91461801 13.1875 27.9375 C15.0746875 27.9684375 15.0746875 27.9684375 17 28 C15.49491281 24.59375004 14.14984152 22.14984152 11.5 19.5 C8.78537883 16.78537883 7.65688465 14.44632007 6 11 C4.44141792 8.62195724 2.83591336 6.28349649 1.20703125 3.953125 C0 2 0 2 0 0 Z " fill="#308385" transform="translate(210,203)"/>
<path d="M0 0 C0.41507812 0.3403125 0.83015625 0.680625 1.2578125 1.03125 C8.82799987 6.98604174 17.34213946 11.79965182 26 16 C26 16.33 26 16.66 26 17 C18.1332874 16.57477229 10.63809855 15.97537032 3 14 C3 13.67 3 13.34 3 13 C6.3 13 9.6 13 13 13 C10.2981424 9.8509288 10.2981424 9.8509288 7 9 C3.89840579 6.20100034 1.74600661 3.77362719 0 0 Z " fill="#B5D763" transform="translate(298,240)"/>
<path d="M0 0 C4.77743824 1.49341382 9.25916639 3.38578956 13.8125 5.4375 C19.46547959 7.95289407 25.0710979 10.20015472 31 12 C27.76470168 13.05128687 25.60277903 12.91901775 22.3125 12.125 C21.52488281 11.94195312 20.73726562 11.75890625 19.92578125 11.5703125 C18 11 18 11 17 10 C15.48071962 9.92820036 13.95832518 9.91607993 12.4375 9.9375 C11.61121094 9.94652344 10.78492188 9.95554688 9.93359375 9.96484375 C9.29550781 9.97644531 8.65742188 9.98804688 8 10 C8 9.34 8 8.68 8 8 C6.68 8 5.36 8 4 8 C3.71125 7.236875 3.4225 6.47375 3.125 5.6875 C2.03730987 2.84970692 2.03730987 2.84970692 0 0 Z " fill="#B0E139" transform="translate(234,198)"/>
<path d="M0 0 C0.99 0.66 1.98 1.32 3 2 C-3 10.66666667 -9 19.33333333 -15 28 C-16.06546953 24.8035914 -16.07427838 22.34252724 -16 19 C-15.34 19 -14.68 19 -14 19 C-13.67 17.68 -13.34 16.36 -13 15 C-12.34 15 -11.68 15 -11 15 C-11 15.66 -11 16.32 -11 17 C-10.34 17 -9.68 17 -9 17 C-8.731875 16.236875 -8.46375 15.47375 -8.1875 14.6875 C-7 12 -7 12 -5.4375 10.5 C-3.51406665 8.49293911 -3.36531415 6.70332474 -3 4 C-2.01 4 -1.02 4 0 4 C-0.33 3.01 -0.66 2.02 -1 1 C-0.67 0.67 -0.34 0.34 0 0 Z " fill="#B1E038" transform="translate(377,232)"/>
<path d="M0 0 C0.33 0.99 0.66 1.98 1 3 C0.01 3.33 -0.98 3.66 -2 4 C-2 4.66 -2 5.32 -2 6 C1.465 5.505 1.465 5.505 5 5 C2.37009599 7.90290442 -0.68060131 9.90867948 -3.9375 12.0625 C-4.97777344 12.75472656 -6.01804687 13.44695312 -7.08984375 14.16015625 C-9.36158116 15.59638218 -11.56816569 16.86905055 -14 18 C-11.57403368 13.60345353 -8.57760189 9.96659212 -5.3125 6.1875 C-4.80138672 5.59001953 -4.29027344 4.99253906 -3.76367188 4.37695312 C-2.51238181 2.91516567 -1.25664027 1.45719067 0 0 Z " fill="#288488" transform="translate(111,310)"/>
<path d="M0 0 C6.52914798 1.75784753 6.52914798 1.75784753 9.1875 3.125 C11.26492521 4.28983271 11.26492521 4.28983271 15 4 C15 4.99 15 5.98 15 7 C22.22839572 9.57281882 29.50652821 11.36695592 37 13 C37 13.66 37 14.32 37 15 C31.43535213 14.46885714 26.53993514 13.40455169 21.3125 11.375 C20.63058594 11.1157373 19.94867188 10.85647461 19.24609375 10.58935547 C12.51447648 7.95082426 6.25292329 4.61898642 0 1 C0 0.67 0 0.34 0 0 Z " fill="#B6D763" transform="translate(264,238)"/>
<path d="M0 0 C0.33 0.66 0.66 1.32 1 2 C0.0625 4.625 0.0625 4.625 -1 7 C-1.66 7 -2.32 7 -3 7 C-3.103125 7.639375 -3.20625 8.27875 -3.3125 8.9375 C-3.539375 9.618125 -3.76625 10.29875 -4 11 C-4.99 11.33 -5.98 11.66 -7 12 C-7.061875 12.721875 -7.12375 13.44375 -7.1875 14.1875 C-8.27061906 17.93675828 -10.15028077 19.33613203 -13 22 C-15.37251636 24.6328546 -17.68753521 27.31434205 -20 30 C-20 26.64176217 -19.62604515 26.14240079 -17.65625 23.59375 C-17.15512695 22.93697266 -16.65400391 22.28019531 -16.13769531 21.60351562 C-15.32703613 20.56227539 -15.32703613 20.56227539 -14.5 19.5 C-13.40038816 18.06299984 -12.30143269 16.62549718 -11.203125 15.1875 C-10.65978516 14.47980469 -10.11644531 13.77210938 -9.55664062 13.04296875 C-6.28958917 8.75521992 -3.15055652 4.37371375 0 0 Z " fill="#B7D963" transform="translate(340,250)"/>
<path d="M0 0 C0.99 0 1.98 0 3 0 C3 0.99 3 1.98 3 3 C3.66 3 4.32 3 5 3 C5.36351562 3.79664063 5.36351562 3.79664063 5.734375 4.609375 C7.73686121 8.82999978 9.62983356 11.73195981 13 15 C14.31264507 17.0668045 15.54815111 19.16214245 16.75390625 21.29296875 C17.97657912 23.31430404 17.97657912 23.31430404 21 24 C21 25.98 21 27.96 21 30 C18.26307958 27.38402188 16.01300274 24.77166078 13.90625 21.62890625 C13.35066406 20.80712891 12.79507812 19.98535156 12.22265625 19.13867188 C11.65417969 18.28853516 11.08570313 17.43839844 10.5 16.5625 C6.2318103 10.16008866 6.2318103 10.16008866 1.59375 4.02734375 C0 2 0 2 0 0 Z " fill="#B5D961" transform="translate(288,292)"/>
<path d="M0 0 C0.33 1.32 0.66 2.64 1 4 C0.34 4 -0.32 4 -1 4 C-1.2475 4.680625 -1.495 5.36125 -1.75 6.0625 C-3.24197908 9.56865083 -5.06835511 12.71620368 -7 16 C-7.66 16 -8.32 16 -9 16 C-9.268125 16.53625 -9.53625 17.0725 -9.8125 17.625 C-10.204375 18.40875 -10.59625 19.1925 -11 20 C-11.433125 21.03125 -11.86625 22.0625 -12.3125 23.125 C-14.2818245 26.48014544 -15.43983031 26.78036601 -19 28 C-14.55725179 20.70661471 -9.74714231 13.79550938 -4.64526367 6.95288086 C-2.11229608 3.61038114 -2.11229608 3.61038114 0 0 Z " fill="#288484" transform="translate(182,205)"/>
<path d="M0 0 C4.81970922 -0.07473903 9.63907335 -0.12887722 14.45922852 -0.16479492 C16.09535609 -0.17978456 17.73144415 -0.20018332 19.36743164 -0.22631836 C36.10216541 -0.48676127 36.10216541 -0.48676127 44 3 C40.03705457 4.14675677 36.71241958 3.70936149 32.6875 3.125 C21.83333271 1.68198145 10.93452095 1.35660774 0 1 C0 0.67 0 0.34 0 0 Z " fill="#35898C" transform="translate(182,295)"/>
<path d="M0 0 C-3.27702459 2.18468306 -6.56518821 3.45923422 -10.25 4.75 C-11.21486328 5.11931641 -11.21486328 5.11931641 -12.19921875 5.49609375 C-17.32676904 7.2809352 -20.10644657 6.85092954 -25 5 C-21.52179367 2.68119578 -18.8416981 2.18192851 -14.75 1.375 C-13.46609375 1.11460937 -12.1821875 0.85421875 -10.859375 0.5859375 C-7.16832367 0.02555521 -3.72587543 -0.1061778 0 0 Z " fill="#3E8889" transform="translate(234,241)"/>
<path d="M0 0 C0.66 0 1.32 0 2 0 C0.57667134 4.05611794 -1.38591603 7.17537252 -3.9375 10.625 C-4.62714844 11.56601562 -5.31679688 12.50703125 -6.02734375 13.4765625 C-7.59656146 15.48391823 -9.14338323 17.26560565 -11 19 C-9.87725238 16.14994834 -8.70566698 13.35246735 -7.4375 10.5625 C-6.12084329 7.2994812 -5.42391604 4.47611149 -5 1 C-3.68 1.33 -2.36 1.66 -1 2 C-0.67 1.34 -0.34 0.68 0 0 Z " fill="#B2DD47" transform="translate(327,304)"/>
<path d="M0 0 C13.2 0 26.4 0 40 0 C37.16992998 2.83007002 34.38047148 2.35245926 30.5859375 2.4140625 C29.49147812 2.44311172 29.49147812 2.44311172 28.37490845 2.4727478 C26.04172498 2.53258422 23.70849227 2.57894423 21.375 2.625 C19.79424918 2.66317614 18.21351924 2.70222765 16.6328125 2.7421875 C12.7553777 2.83828878 8.87784551 2.92230412 5 3 C5 3.99 5 4.98 5 6 C3.35 4.02 1.7 2.04 0 0 Z " fill="#F1FAD8" transform="translate(298,239)"/>
<path d="M0 0 C6.82851569 4.4511806 13.43723889 9.16686378 20 14 C19.01 14.495 19.01 14.495 18 15 C14.37954568 13.45938114 11.64334876 11.90768363 9 9 C8.34 8.67 7.68 8.34 7 8 C6.67 8.66 6.34 9.32 6 10 C4.99421411 8.71283353 3.99553202 7.42011342 3 6.125 C2.443125 5.40570313 1.88625 4.68640625 1.3125 3.9453125 C0 2 0 2 0 0 Z " fill="#B6D861" transform="translate(249,237)"/>
<path d="M0 0 C-2.63739644 1.38061586 -5.20956606 2.47123047 -8.046875 3.3671875 C-9.1915625 3.73650391 -9.1915625 3.73650391 -10.359375 4.11328125 C-11.93668235 4.61585467 -13.51479446 5.11591025 -15.09375 5.61328125 C-19.04669597 6.89334597 -22.75134665 8.2976077 -26.453125 10.1953125 C-30 12 -30 12 -32 12 C-32 11.01 -32 10.02 -32 9 C-28.535 8.505 -28.535 8.505 -25 8 C-25 7.34 -25 6.68 -25 6 C-23.80761719 5.65066406 -22.61523438 5.30132812 -21.38671875 4.94140625 C-19.82030407 4.48179955 -18.25389829 4.02216255 -16.6875 3.5625 C-15.50897461 3.21735352 -15.50897461 3.21735352 -14.30664062 2.86523438 C-13.1706543 2.53168945 -13.1706543 2.53168945 -12.01171875 2.19140625 C-11.31522217 1.98717041 -10.61872559 1.78293457 -9.90112305 1.57250977 C-6.37659059 0.51112173 -3.69781632 -0.09994098 0 0 Z " fill="#278182" transform="translate(156,299)"/>
<path d="M0 0 C4 5 4 5 8 10 C7.67 10.66 7.34 11.32 7 12 C0.07 8.04 0.07 8.04 -7 4 C-3 3 -3 3 -1 4 C-0.67 2.68 -0.34 1.36 0 0 Z " fill="#2C8386" transform="translate(292,317)"/>
<path d="M0 0 C0.66 0.33 1.32 0.66 2 1 C2 1.99 2 2.98 2 4 C0.6078125 4.4021875 0.6078125 4.4021875 -0.8125 4.8125 C-3.8311641 5.93710035 -4.9155143 6.70706573 -7 9 C-7.66 9 -8.32 9 -9 9 C-9 9.66 -9 10.32 -9 11 C-13.31818182 15.65909091 -13.31818182 15.65909091 -16 17 C-16.33 16.01 -16.66 15.02 -17 14 C-14.91784697 12.22776281 -12.83433081 10.45717274 -10.75 8.6875 C-10.16347656 8.18798828 -9.57695312 7.68847656 -8.97265625 7.17382812 C-6.04373434 4.68918088 -3.11144626 2.2565687 0 0 Z " fill="#258483" transform="translate(151,274)"/>
<path d="M0 0 C3.71080883 4.42442592 6.84577733 9.17403931 10 14 C7.83125748 13.49396008 6.00032373 13.00016187 4 12 C3.67 12.66 3.34 13.32 3 14 C2 13 2 13 1.90234375 10.93359375 C1.91974609 9.69802734 1.91974609 9.69802734 1.9375 8.4375 C1.94652344 7.61121094 1.95554687 6.78492188 1.96484375 5.93359375 C1.97644531 5.29550781 1.98804688 4.65742188 2 4 C1.34 4 0.68 4 0 4 C0 2.68 0 1.36 0 0 Z " fill="#1F8387" transform="translate(272,289)"/>
<path d="M0 0 C0.33 1.32 0.66 2.64 1 4 C7.6 4 14.2 4 21 4 C21 4.33 21 4.66 21 5 C19.80503906 5.06058594 18.61007813 5.12117188 17.37890625 5.18359375 C5.66471039 5.79215577 5.66471039 5.79215577 -6 7 C-4.02 4.69 -2.04 2.38 0 0 Z " fill="#D8F4F5" transform="translate(187,267)"/>
<path d="M0 0 C0.66 0.33 1.32 0.66 2 1 C0.02 1.66 -1.96 2.32 -4 3 C-4 3.66 -4 4.32 -4 5 C-4.66 5 -5.32 5 -6 5 C-5.566875 5.391875 -5.13375 5.78375 -4.6875 6.1875 C-1.83750763 9.24860292 0 11.75829427 0 16 C-4.00972202 12.32442148 -6.45335415 8.81033104 -9 4 C-7.54618103 3.30300448 -6.08677047 2.61766134 -4.625 1.9375 C-3.40683594 1.36322266 -3.40683594 1.36322266 -2.1640625 0.77734375 C-1.44992188 0.52082031 -0.73578125 0.26429688 0 0 Z " fill="#3B8B8A" transform="translate(232,254)"/>
<path d="M0 0 C-0.99 2.31 -1.98 4.62 -3 7 C-5.97 6.01 -8.94 5.02 -12 4 C-4.75 -1.69642857 -4.75 -1.69642857 0 0 Z " fill="#B1DD4D" transform="translate(404,192)"/>
<path d="M0 0 C0 0.99 0 1.98 0 3 C-1.258125 3.28875 -2.51625 3.5775 -3.8125 3.875 C-6.8539399 4.57303539 -8.30669878 5.20446585 -11 7 C-13.69921875 7.4140625 -13.69921875 7.4140625 -16.6875 7.625 C-18.17830078 7.73714844 -18.17830078 7.73714844 -19.69921875 7.8515625 C-20.45847656 7.90054688 -21.21773438 7.94953125 -22 8 C-19.53693303 6.35795535 -17.78171367 5.45155224 -15.05859375 4.4921875 C-14.31029297 4.22792969 -13.56199219 3.96367187 -12.79101562 3.69140625 C-12.01435547 3.42199219 -11.23769531 3.15257812 -10.4375 2.875 C-9.65697266 2.59785156 -8.87644531 2.32070312 -8.07226562 2.03515625 C-2.26254618 0 -2.26254618 0 0 0 Z " fill="#B5D85E" transform="translate(383,200)"/>
<path d="M0 0 C2.475 0.99 2.475 0.99 5 2 C5 2.66 5 3.32 5 4 C5.598125 4.226875 6.19625 4.45375 6.8125 4.6875 C9.60188284 6.3611297 10.6168842 8.08817726 12 11 C11.67 11.66 11.34 12.32 11 13 C9.83593677 11.83593677 8.67245135 10.67129061 7.51171875 9.50390625 C6.46205398 8.4596661 5.40128152 7.42652024 4.33203125 6.40234375 C2.85185191 4.97138652 1.42232322 3.48847779 0 2 C0 1.34 0 0.68 0 0 Z " fill="#B4DA57" transform="translate(227,206)"/>
<path d="M0 0 C4.39309313 1.58003686 6.82418312 3.55197024 10 7 C9.01 7 8.02 7 7 7 C6.67 7.66 6.34 8.32 6 9 C6.66 9 7.32 9 8 9 C8.33 10.65 8.66 12.3 9 14 C4.4434473 10.28725335 2.42599607 5.20992598 0 0 Z " fill="#B8D66F" transform="translate(211,183)"/>
<path d="M0 0 C0.99 0.33 1.98 0.66 3 1 C3.6875 3.0625 3.6875 3.0625 4 5 C5.32 5 6.64 5 8 5 C8.48198463 6.24891614 8.96045677 7.49918808 9.4375 8.75 C9.70433594 9.44609375 9.97117187 10.1421875 10.24609375 10.859375 C10.96146693 12.89059003 11.51365652 14.9035291 12 17 C8.67835601 13.9102726 6.23969512 10.59775869 3.75 6.8125 C3.04359375 5.74644531 2.3371875 4.68039062 1.609375 3.58203125 C0 1 0 1 0 0 Z " fill="#B6D95C" transform="translate(268,264)"/>
<path d="M0 0 C0.99 0.66 1.98 1.32 3 2 C1.56635564 4.10688615 0.12829067 6.21050926 -1.3125 8.3125 C-1.71662109 8.90740234 -2.12074219 9.50230469 -2.53710938 10.11523438 C-4.50294926 12.97609079 -6.4069317 15.67546952 -9 18 C-8.50712398 13.56411585 -7.08097175 12.08097175 -4 9 C-3.20318682 6.35815459 -3.20318682 6.35815459 -3 4 C-2.01 4 -1.02 4 0 4 C-0.33 3.01 -0.66 2.02 -1 1 C-0.67 0.67 -0.34 0.34 0 0 Z " fill="#B4D957" transform="translate(377,232)"/>
<path d="M0 0 C-7.94551563 4.7452385 -16.00851236 4.77935 -25 5 C-25 4.67 -25 4.34 -25 4 C-21.39883744 3.13281402 -17.79369152 2.28350759 -14.1875 1.4375 C-13.16333984 1.19064453 -12.13917969 0.94378906 -11.08398438 0.68945312 C-10.10107422 0.46064453 -9.11816406 0.23183594 -8.10546875 -0.00390625 C-7.19949951 -0.21861572 -6.29353027 -0.4333252 -5.36010742 -0.65454102 C-3 -1 -3 -1 0 0 Z " fill="#B4D468" transform="translate(361,209)"/>
<path d="M0 0 C4.875 1.75 4.875 1.75 6 4 C8.01669827 5.13350534 8.01669827 5.13350534 10 6 C9.67 7.32 9.34 8.64 9 10 C5.17647894 8.4422692 2.70794407 6.08404742 0 3 C0 2.01 0 1.02 0 0 Z " fill="#B0DF39" transform="translate(256,245)"/>
<path d="M0 0 C3.3 0.33 6.6 0.66 10 1 C10 1.66 10 2.32 10 3 C10.556875 3.12375 11.11375 3.2475 11.6875 3.375 C14.22114364 4.05976855 16.57921032 4.99133763 19 6 C19 6.66 19 7.32 19 8 C12.54646385 5.94235079 6.2638737 3.57616518 0 1 C0 0.67 0 0.34 0 0 Z " fill="#258480" transform="translate(258,308)"/>
<path d="M0 0 C0.33 0.99 0.66 1.98 1 3 C1.66 3.33 2.32 3.66 3 4 C-1.455 7.465 -1.455 7.465 -6 11 C-6.66 10.67 -7.32 10.34 -8 10 C-5.36 6.7 -2.72 3.4 0 0 Z " fill="#3B8584" transform="translate(105,317)"/>
<path d="M0 0 C0 0.99 0 1.98 0 3 C-0.99 3.33 -1.98 3.66 -3 4 C-3.1546875 4.8971875 -3.1546875 4.8971875 -3.3125 5.8125 C-4.39002541 9.24098994 -7.02264882 10.22625887 -10 12 C-10.66 11.67 -11.32 11.34 -12 11 C-10.56564079 9.5385774 -9.12739414 8.08096951 -7.6875 6.625 C-6.88699219 5.81289063 -6.08648437 5.00078125 -5.26171875 4.1640625 C-3 2 -3 2 0 0 Z " fill="#2A8485" transform="translate(133,289)"/>
<path d="M0 0 C4.85707512 1.3630868 7.03419797 4.1401475 9.8125 8.125 C10.21919922 8.68832031 10.62589844 9.25164062 11.04492188 9.83203125 C12.04035028 11.21392009 13.02162964 12.6059821 14 14 C13.67 14.66 13.34 15.32 13 16 C10.00821229 13.1656748 7.64347272 10.79262936 6 7 C3.9927092 3.9890638 3.16115776 3.36983503 0 2 C0 1.34 0 0.68 0 0 Z " fill="#B8D76A" transform="translate(288,265)"/>
<path d="M0 0 C0.33 0.99 0.66 1.98 1 3 C1.99 3.33 2.98 3.66 4 4 C-0.455 7.465 -0.455 7.465 -5 11 C-5.66 10.67 -6.32 10.34 -7 10 C-3.535 5.05 -3.535 5.05 0 0 Z " fill="#458A8A" transform="translate(141,263)"/>
<path d="M0 0 C1 4 1 4 -0.25 6.5625 C-1.71962175 8.60947315 -3.13797675 10.3153123 -5 12 C-5.99 11.67 -6.98 11.34 -8 11 C-5.36 7.37 -2.72 3.74 0 0 Z " fill="#238387" transform="translate(162,234)"/>
<path d="M0 0 C0.33 0.66 0.66 1.32 1 2 C1.66 2 2.32 2 3 2 C3.33 1.34 3.66 0.68 4 0 C4.66 0.66 5.32 1.32 6 2 C3.69 5.3 1.38 8.6 -1 12 C-1.33 11.01 -1.66 10.02 -2 9 C-1.34 8.34 -0.68 7.68 0 7 C0.16677282 3.41656024 0.16677282 3.41656024 0 0 Z " fill="#B4DB54" transform="translate(354,260)"/>
<path d="M0 0 C1.48199902 0.44909061 2.96055236 0.90956564 4.4375 1.375 C5.26121094 1.63023437 6.08492188 1.88546875 6.93359375 2.1484375 C9 3 9 3 10 5 C3.07 4.505 3.07 4.505 -4 4 C-2.68 3.67 -1.36 3.34 0 3 C0 2.01 0 1.02 0 0 Z " fill="#BBD27E" transform="translate(314,252)"/>
<path d="M0 0 C1.65 1.65 3.3 3.3 5 5 C4.01 5 3.02 5 2 5 C0.01669827 5.86649466 0.01669827 5.86649466 -2 7 C-3.33333333 7.66666667 -4.66666667 8.33333333 -6 9 C-2.25 2.25 -2.25 2.25 0 0 Z " fill="#288281" transform="translate(197,185)"/>
<path d="M0 0 C0.66 0.33 1.32 0.66 2 1 C-2.21178048 4.20095317 -5.74407935 6.83201763 -11 8 C-13.17578125 7.5390625 -13.17578125 7.5390625 -15 7 C-12.54595776 5.80283341 -10.08748321 4.6170654 -7.625 3.4375 C-6.57699219 2.92413086 -6.57699219 2.92413086 -5.5078125 2.40039062 C-3.69947784 1.53969288 -1.85148044 0.76347564 0 0 Z " fill="#2D8384" transform="translate(192,251)"/>
<path d="M0 0 C4.17861069 2.01515463 7.10013966 3.78289729 8.91796875 8.26171875 C9.66506204 10.49598366 10.36053019 12.73278884 11 15 C7.80750523 12.03352255 5.5407013 8.95036364 3.25 5.25 C2.63640625 4.26515625 2.0228125 3.2803125 1.390625 2.265625 C0.93171875 1.51796875 0.4728125 0.7703125 0 0 Z " fill="#B7D867" transform="translate(257,249)"/>
<path d="M0 0 C0.66 0.66 1.32 1.32 2 2 C-1.3 5.3 -4.6 8.6 -8 12 C-8.33 11.01 -8.66 10.02 -9 9 C-8.34 9 -7.68 9 -7 9 C-6.6596875 8.1646875 -6.6596875 8.1646875 -6.3125 7.3125 C-4.64103234 4.36753316 -2.44723648 2.31843456 0 0 Z " fill="#E5F9FA" transform="translate(126,292)"/>
<path d="M0 0 C3.71080883 4.42442592 6.84577733 9.17403931 10 14 C5.2109375 12.375 5.2109375 12.375 3.3125 9 C2.879375 8.01 2.44625 7.02 2 6 C1.34 5.34 0.68 4.68 0 4 C0 2.68 0 1.36 0 0 Z " fill="#268382" transform="translate(262,275)"/>
<path d="M0 0 C0.99 1.32 1.98 2.64 3 4 C2.443125 4.20625 1.88625 4.4125 1.3125 4.625 C-1.92501302 6.55000774 -3.68231141 9.03850902 -6 12 C-6 8.36804504 -5.04546845 7.25286089 -3 4.3125 C-2.443125 3.50425781 -1.88625 2.69601562 -1.3125 1.86328125 C-0.879375 1.24839844 -0.44625 0.63351562 0 0 Z " fill="#F5FCE4" transform="translate(325,310)"/>
<path d="M0 0 C-1.4163067 2.8326134 -3.14497293 3.01707833 -6.0625 4.125 C-6.98160156 4.47820312 -7.90070313 4.83140625 -8.84765625 5.1953125 C-9.55792969 5.46085938 -10.26820313 5.72640625 -11 6 C-11 5.01 -11 4.02 -11 3 C-10.01 3 -9.02 3 -8 3 C-8 2.01 -8 1.02 -8 0 C-5.13822943 -1.43088528 -3.06624227 -0.59991697 0 0 Z " fill="#3B8B8D" transform="translate(185,242)"/>
<path d="M0 0 C6.37732315 1.87724961 12.70695459 3.85671642 19 6 C13.86472673 7.61493888 8.81626942 6.45688886 4.08203125 4.0078125 C2.4375 2.9375 2.4375 2.9375 0 1 C0 0.67 0 0.34 0 0 Z " fill="#B6D568" transform="translate(246,204)"/>
<path d="M0 0 C1.77388086 1.09926403 3.54399684 2.20460502 5.3125 3.3125 C6.29863281 3.92738281 7.28476562 4.54226563 8.30078125 5.17578125 C10.50172035 6.66324661 12.23328988 8.0403386 14 10 C9.99273754 9.38349808 7.32135444 7.21423629 4 5 C1.77397385 4.23060319 1.77397385 4.23060319 0 4 C0 2.68 0 1.36 0 0 Z " fill="#B8D768" transform="translate(270,252)"/>
<path d="M0 0 C0.66 0.66 1.32 1.32 2 2 C0.74054645 3.67528263 -0.53293682 5.34002614 -1.8125 7 C-2.87404297 8.3921875 -2.87404297 8.3921875 -3.95703125 9.8125 C-4.63121094 10.534375 -5.30539062 11.25625 -6 12 C-6.99 12 -7.98 12 -9 12 C-6.03 8.04 -3.06 4.08 0 0 Z " fill="#F5FCE4" transform="translate(368,250)"/>
<path d="M0 0 C0 3.83764027 -1.26535335 5.11486085 -3.5 8.1875 C-4.1496875 9.08855469 -4.799375 9.98960937 -5.46875 10.91796875 C-5.9740625 11.60503906 -6.479375 12.29210937 -7 13 C-8.24546405 10.50907189 -7.7767578 9.58919267 -7 7 C-6.34 7 -5.68 7 -5 7 C-5 6.01 -5 5.02 -5 4 C-4.01 4 -3.02 4 -2 4 C-1.34 2.68 -0.68 1.36 0 0 Z " fill="#B5D95F" transform="translate(348,276)"/>
<path d="M0 0 C3.43859819 0.27912628 4.6928044 0.65239956 7.01953125 3.28515625 C7.61121094 4.20167969 8.20289063 5.11820312 8.8125 6.0625 C9.41707031 6.98160156 10.02164063 7.90070313 10.64453125 8.84765625 C11.09183594 9.55792969 11.53914062 10.26820313 12 11 C11.01 11.495 11.01 11.495 10 12 C10 11.34 10 10.68 10 10 C9.34 10 8.68 10 8 10 C5.82796 7.03812728 4.16438003 4.49314009 3 1 C2.01 0.67 1.02 0.34 0 0 Z " fill="#2E8285" transform="translate(241,251)"/>
<path d="M0 0 C2.81872737 0.38878998 3.77195598 0.70810365 5.5625 3 C6.036875 3.66 6.51125 4.32 7 5 C7.99 5.33 8.98 5.66 10 6 C11.6875 8.5625 11.6875 8.5625 13 11 C8.98935008 9.65843409 6.61296284 7.97314977 3.6875 4.9375 C2.99011719 4.22464844 2.29273438 3.51179687 1.57421875 2.77734375 C0 1 0 1 0 0 Z " fill="#B7D767" transform="translate(239,219)"/>
<path d="M0 0 C1.32 0.33 2.64 0.66 4 1 C1.69 3.97 -0.62 6.94 -3 10 C-3.33 8.68 -3.66 7.36 -4 6 C-3.34 6 -2.68 6 -2 6 C-2 5.01 -2 4.02 -2 3 C-1.34 3 -0.68 3 0 3 C0 2.01 0 1.02 0 0 Z " fill="#B5D859" transform="translate(333,294)"/>
<path d="M0 0 C0 0.99 0 1.98 0 3 C-4.455 3.495 -4.455 3.495 -9 4 C-9 3.01 -9 2.02 -9 1 C-6.04335481 -0.4783226 -3.25770263 -0.06032783 0 0 Z " fill="#068182" transform="translate(208,249)"/>
<path d="M0 0 C0.99 0 1.98 0 3 0 C1.4169423 4.2742558 -1.50568404 6.26531794 -5 9 C-5 8.01 -5 7.02 -5 6 C-4.34 6 -3.68 6 -3 6 C-3 5.01 -3 4.02 -3 3 C-2.34 3 -1.68 3 -1 3 C-0.67 2.01 -0.34 1.02 0 0 Z " fill="#1A7F81" transform="translate(184,266)"/>
<path d="M0 0 C4 4.5 4 4.5 4 9 C2.68 8.67 1.36 8.34 0 8 C0 5.36 0 2.72 0 0 Z " fill="#1E8284" transform="translate(202,191)"/>
<path d="M0 0 C2.3125 0.4375 2.3125 0.4375 5 2 C6.36075884 4.90755893 7.21362959 7.89287788 8 11 C4.31993178 7.61831569 2.0214155 4.57478244 0 0 Z " fill="#B6D762" transform="translate(280,281)"/>
<path d="M0 0 C0.99 0.33 1.98 0.66 3 1 C1.02 3.97 -0.96 6.94 -3 10 C-4 7 -4 7 -3.22265625 5.17578125 C-2.1484375 3.45052083 -1.07421875 1.72526042 0 0 Z " fill="#E1F8F9" transform="translate(149,248)"/>
<path d="M0 0 C-1.3937282 4.43458973 -3.60582235 6.87378374 -7 10 C-4.54716981 0 -4.54716981 0 0 0 Z " fill="#278283" transform="translate(191,224)"/>
<path d="M0 0 C0.66 0 1.32 0 2 0 C1.35494404 3.48330216 0.01782732 6.09432866 -2 9 C-2.66 9 -3.32 9 -4 9 C-4 7.68 -4 6.36 -4 5 C-3.34 5 -2.68 5 -2 5 C-1.34 3.35 -0.68 1.7 0 0 Z " fill="#B4DB53" transform="translate(407,191)"/>
<path d="M0 0 C0.99 0.33 1.98 0.66 3 1 C0.03 4.96 0.03 4.96 -3 9 C-4 6 -4 6 -3.0625 3.8125 C-2.5365625 2.9153125 -2.5365625 2.9153125 -2 2 C-1.34 2 -0.68 2 0 2 C0 1.34 0 0.68 0 0 Z " fill="#B7D95D" transform="translate(384,224)"/>
<path d="M0 0 C0.33 1.32 0.66 2.64 1 4 C-0.875 6.625 -0.875 6.625 -3 9 C-3.33 9.66 -3.66 10.32 -4 11 C-4.99 10.67 -5.98 10.34 -7 10 C-3.535 5.05 -3.535 5.05 0 0 Z " fill="#F4FBDE" transform="translate(402,202)"/>
<path d="M0 0 C4.23429756 1.31061591 8.07407404 2.94356259 12 5 C10.02 5.99 10.02 5.99 8 7 C7.608125 6.566875 7.21625 6.13375 6.8125 5.6875 C4.72209066 3.74125682 2.44810452 2.45562972 0 1 C0 0.67 0 0.34 0 0 Z " fill="#BAD867" transform="translate(234,198)"/>
<path d="M0 0 C0.99 0.33 1.98 0.66 3 1 C0.69 4.3 -1.62 7.6 -4 11 C-4.33 10.34 -4.66 9.68 -5 9 C-4.00390625 6.8359375 -4.00390625 6.8359375 -2.5625 4.375 C-2.08941406 3.55773437 -1.61632812 2.74046875 -1.12890625 1.8984375 C-0.75636719 1.27195312 -0.38382812 0.64546875 0 0 Z " fill="#B7D768" transform="translate(321,312)"/>
<path d="M0 0 C1.8125 0.1875 1.8125 0.1875 4 1 C6.14197494 3.90696599 7 5.35521088 7 9 C4.03595495 6.19195732 1.55500981 3.81684226 0 0 Z " fill="#2C8686" transform="translate(225,261)"/>
<path d="M0 0 C-0.33 0.66 -0.66 1.32 -1 2 C-0.01 2.33 0.98 2.66 2 3 C2 3.66 2 4.32 2 5 C-1.37503669 3.8141763 -3.64722731 2.72426311 -6 0 C-2.25 -1.125 -2.25 -1.125 0 0 Z " fill="#B4D957" transform="translate(262,233)"/>
<path d="M0 0 C0.66 0.33 1.32 0.66 2 1 C1 4 1 4 -1.375 5.25 C-4 6 -4 6 -7 5 C-4.69 3.35 -2.38 1.7 0 0 Z " fill="#258486" transform="translate(160,268)"/>
<path d="M0 0 C0.66 0.33 1.32 0.66 2 1 C0.02 3.97 -1.96 6.94 -4 10 C-4.33 9.01 -4.66 8.02 -5 7 C-2 2 -2 2 0 0 Z " fill="#BAD769" transform="translate(366,250)"/>
<path d="M0 0 C4.455 2.97 4.455 2.97 9 6 C7.68 6.33 6.36 6.66 5 7 C2.25 4.6875 2.25 4.6875 0 2 C0 1.34 0 0.68 0 0 Z " fill="#BCD28B" transform="translate(249,237)"/>
<path d="M0 0 C0.99 0.33 1.98 0.66 3 1 C3.33 1.99 3.66 2.98 4 4 C0.04 4 -3.92 4 -8 4 C-8 3.67 -8 3.34 -8 3 C-5.36 3 -2.72 3 0 3 C0 2.01 0 1.02 0 0 Z " fill="#22807E" transform="translate(227,228)"/>
<path d="M0 0 C1.875 0.625 1.875 0.625 4 2 C5.25 5.125 5.25 5.125 6 8 C2.17053157 6.54744301 0.87949705 4.57104439 -1 1 C-0.67 0.67 -0.34 0.34 0 0 Z " fill="#B3DD49" transform="translate(250,225)"/>
<path d="M0 0 C1.31554985 0.4495045 2.62738358 0.90989716 3.9375 1.375 C5.03384766 1.75785156 5.03384766 1.75785156 6.15234375 2.1484375 C8 3 8 3 9 5 C7.02 4.34 5.04 3.68 3 3 C2.01 4.485 2.01 4.485 1 6 C1 5.01 1 4.02 1 3 C0.34 3 -0.32 3 -1 3 C-0.67 2.01 -0.34 1.02 0 0 Z " fill="#B5DB53" transform="translate(218,189)"/>
<path d="M0 0 C2.96404505 2.80804268 5.44499019 5.18315774 7 9 C6.01 9.33 5.02 9.66 4 10 C3.32845067 8.71086513 2.66291141 7.41859796 2 6.125 C1.62875 5.40570313 1.2575 4.68640625 0.875 3.9453125 C0 2 0 2 0 0 Z " fill="#2A8383" transform="translate(255,266)"/>
<path d="M0 0 C0.33 0.99 0.66 1.98 1 3 C-0.40445835 5.2636564 -2.1967913 7.0208685 -4 9 C-4.66 8.67 -5.32 8.34 -6 8 C-4.02 5.36 -2.04 2.72 0 0 Z " fill="#F4FCE1" transform="translate(386,225)"/>
<path d="M0 0 C2 0.0625 2 0.0625 4 1 C5.25 3.5625 5.25 3.5625 6 6 C3.36 4.68 0.72 3.36 -2 2 C-1.34 1.34 -0.68 0.68 0 0 Z " fill="#48898C" transform="translate(294,323)"/>
<path d="M0 0 C3.3 0.33 6.6 0.66 10 1 C10 1.99 10 2.98 10 4 C6.7 3.01 3.4 2.02 0 1 C0 0.67 0 0.34 0 0 Z " fill="#2C8887" transform="translate(258,308)"/>
<path d="M0 0 C0 0.99 0 1.98 0 3 C-2.3125 4.75 -2.3125 4.75 -5 6 C-5.99 5.67 -6.98 5.34 -8 5 C-4.04 2.525 -4.04 2.525 0 0 Z " fill="#308584" transform="translate(170,262)"/>
<path d="M0 0 C0.66 0.33 1.32 0.66 2 1 C-0.31 3.31 -2.62 5.62 -5 8 C-5.66 7.34 -6.32 6.68 -7 6 C-4.69 4.02 -2.38 2.04 0 0 Z " fill="#DEF4F5" transform="translate(195,260)"/>
<path d="M0 0 C0.66 0.33 1.32 0.66 2 1 C-0.25 3.0625 -0.25 3.0625 -3 5 C-5.3125 4.75 -5.3125 4.75 -7 4 C-1.7265625 0.77734375 -1.7265625 0.77734375 0 0 Z " fill="#D8F3F2" transform="translate(215,248)"/>
<path d="M0 0 C0.66 0.66 1.32 1.32 2 2 C0.02 4.97 0.02 4.97 -2 8 C-2.66 6.68 -3.32 5.36 -4 4 C-2.68 2.68 -1.36 1.36 0 0 Z " fill="#E1F6F7" transform="translate(158,236)"/>
<path d="M0 0 C0.99 0.33 1.98 0.66 3 1 C3 1.66 3 2.32 3 3 C3.66 3 4.32 3 5 3 C5.33 4.98 5.66 6.96 6 9 C3.59927045 6.11912454 1.52708963 3.43595166 0 0 Z " fill="#E0F5F7" transform="translate(200,187)"/>
<path d="M0 0 C0.66 0.33 1.32 0.66 2 1 C-1.32307692 4.93846154 -1.32307692 4.93846154 -4.75 5.25 C-5.4925 5.1675 -6.235 5.085 -7 5 C-2.25 1.125 -2.25 1.125 0 0 Z " fill="#BCD285" transform="translate(414,183)"/>
<path d="M0 0 C1.485 0.99 1.485 0.99 3 2 C3 2.66 3 3.32 3 4 C4.32 4.33 5.64 4.66 7 5 C4.69 5 2.38 5 0 5 C-0.33 4.34 -0.66 3.68 -1 3 C-0.67 2.01 -0.34 1.02 0 0 Z " fill="#B2DE3B" transform="translate(305,288)"/>
<path d="M0 0 C0.33 0.99 0.66 1.98 1 3 C-0.40445835 5.2636564 -2.1967913 7.0208685 -4 9 C-4.66 8.67 -5.32 8.34 -6 8 C-4.02 5.36 -2.04 2.72 0 0 Z " fill="#F5FDE2" transform="translate(351,274)"/>
<path d="M0 0 C1.65 1.65 3.3 3.3 5 5 C4.67 5.66 4.34 6.32 4 7 C2.68 7 1.36 7 0 7 C0 4.69 0 2.38 0 0 Z " fill="#E8FAFA" transform="translate(224,261)"/>
<path d="M0 0 C0.66 0.33 1.32 0.66 2 1 C-2.39453125 5.00390625 -2.39453125 5.00390625 -4 6 C-4.99 5.67 -5.98 5.34 -7 5 C-4.69 3.35 -2.38 1.7 0 0 Z " fill="#E3F8FA" transform="translate(158,257)"/>
<path d="M0 0 C0.66 0.33 1.32 0.66 2 1 C-0.97 4.96 -0.97 4.96 -4 9 C-4.33 8.01 -4.66 7.02 -5 6 C-3.59554165 3.7363436 -1.8032087 1.9791315 0 0 Z " fill="#B8D668" transform="translate(373,241)"/>
<path d="M0 0 C0.66 0.33 1.32 0.66 2 1 C0.02 3.97 0.02 3.97 -2 7 C-2.5534764 4.92446352 -3 3.15634036 -3 1 C-2.01 0.67 -1.02 0.34 0 0 Z " fill="#F3FDDF" transform="translate(349,235)"/>
</svg>
